<?xml version="1.0" encoding="UTF-8"?><svg xmlns="http://www.w3.org/2000/svg" xmlns:xlink="http://www.w3.org/1999/xlink" fill-opacity="1" color-rendering="auto" color-interpolation="auto" text-rendering="auto" stroke="black" stroke-linecap="square" width="730" stroke-miterlimit="10" shape-rendering="auto" stroke-opacity="1" fill="black" stroke-dasharray="none" font-weight="normal" stroke-width="1" height="233" font-family="'Dialog'" font-style="normal" stroke-linejoin="miter" font-size="12px" stroke-dashoffset="0" image-rendering="auto">
  <!--Generated by ySVG 2.5-->
  <defs id="genericDefs"/>
  <g>
    <defs id="defs1">
      <clipPath clipPathUnits="userSpaceOnUse" id="clipPath1">
        <path d="M0 0 L730 0 L730 233 L0 233 L0 0 Z"/>
      </clipPath>
      <clipPath clipPathUnits="userSpaceOnUse" id="clipPath2">
        <path d="M303 289 L1033 289 L1033 522 L303 522 L303 289 Z"/>
      </clipPath>
    </defs>
    <g fill="white" text-rendering="geometricPrecision" shape-rendering="geometricPrecision" transform="translate(-303,-289)" stroke="white">
      <rect x="303" width="730" height="233" y="289" clip-path="url(#clipPath2)" stroke="none"/>
    </g>
    <g fill="rgb(245,245,245)" text-rendering="geometricPrecision" shape-rendering="geometricPrecision" transform="matrix(1,0,0,1,-303,-289)" stroke="rgb(245,245,245)">
      <rect x="318.6806" y="304.6235" clip-path="url(#clipPath2)" width="277.7994" rx="4" ry="4" height="138.3765" stroke="none"/>
      <rect x="318.6806" y="304.6235" clip-path="url(#clipPath2)" fill="rgb(235,235,235)" width="277.7994" height="22.3765" stroke="none"/>
    </g>
    <g font-size="15px" stroke-linecap="butt" transform="matrix(1,0,0,1,-303,-289)" text-rendering="geometricPrecision" font-family="sans-serif" shape-rendering="geometricPrecision" stroke-miterlimit="1.45">
      <text x="453.562" xml:space="preserve" y="321.7041" clip-path="url(#clipPath2)" stroke="none">Laravel Application A</text>
      <rect x="318.6806" y="304.6235" clip-path="url(#clipPath2)" fill="none" width="277.7994" stroke-dasharray="6,2" rx="4" ry="4" height="138.3765"/>
    </g>
    <g fill="white" text-rendering="geometricPrecision" shape-rendering="geometricPrecision" transform="matrix(1,0,0,1,-303,-289)" stroke="white">
      <path d="M501.48 342 L581.48 342 L581.48 418 Q561.48 398 541.48 418 Q521.48 438 501.48 418 Z" stroke="none" clip-path="url(#clipPath2)"/>
    </g>
    <g text-rendering="geometricPrecision" stroke-miterlimit="1.45" shape-rendering="geometricPrecision" transform="matrix(1,0,0,1,-303,-289)" stroke-linecap="butt">
      <path fill="none" d="M501.48 342 L581.48 342 L581.48 418 Q561.48 398 541.48 418 Q521.48 438 501.48 418 Z" clip-path="url(#clipPath2)"/>
      <text x="515.1245" xml:space="preserve" y="360.0645" clip-path="url(#clipPath2)" font-family="sans-serif" stroke="none">Outbound</text>
      <text x="517.1343" xml:space="preserve" y="374.7656" clip-path="url(#clipPath2)" font-family="sans-serif" stroke="none">Message</text>
      <text x="525.1382" xml:space="preserve" y="389.4668" clip-path="url(#clipPath2)" font-family="sans-serif" stroke="none">Model</text>
    </g>
    <g fill="white" text-rendering="geometricPrecision" shape-rendering="geometricPrecision" transform="matrix(1,0,0,1,-303,-289)" stroke="white">
      <rect x="333.6806" width="121.4227" height="54.9037" y="357.5482" clip-path="url(#clipPath2)" stroke="none"/>
    </g>
    <g text-rendering="geometricPrecision" stroke-miterlimit="1.45" stroke-dasharray="6,2" shape-rendering="geometricPrecision" transform="matrix(1,0,0,1,-303,-289)" stroke-linecap="butt">
      <rect fill="none" x="333.6806" width="121.4227" height="54.9037" y="357.5482" clip-path="url(#clipPath2)"/>
      <text x="344.8481" y="375.0127" clip-path="url(#clipPath2)" font-family="sans-serif" stroke-dasharray="none" stroke="none" xml:space="preserve">{</text>
      <text x="344.8481" y="389.7139" clip-path="url(#clipPath2)" font-family="sans-serif" stroke-dasharray="none" stroke="none" xml:space="preserve">  "message":"data"</text>
      <text x="344.8481" y="404.415" clip-path="url(#clipPath2)" font-family="sans-serif" stroke-dasharray="none" stroke="none" xml:space="preserve">}</text>
      <path fill="none" stroke-dasharray="none" d="M455.1034 385 L493.4549 385" clip-path="url(#clipPath2)"/>
      <path stroke-dasharray="none" d="M501.4549 385 L489.4549 380 L492.4549 385 L489.4549 390 Z" clip-path="url(#clipPath2)" stroke="none"/>
    </g>
    <g fill="rgb(245,245,245)" text-rendering="geometricPrecision" shape-rendering="geometricPrecision" transform="matrix(1,0,0,1,-303,-289)" stroke="rgb(245,245,245)">
      <rect x="741" y="304.6235" clip-path="url(#clipPath2)" width="276.3733" rx="4" ry="4" height="138.3765" stroke="none"/>
      <rect x="741" y="304.6235" clip-path="url(#clipPath2)" fill="rgb(235,235,235)" width="276.3733" height="22.3765" stroke="none"/>
    </g>
    <g font-size="15px" stroke-linecap="butt" transform="matrix(1,0,0,1,-303,-289)" text-rendering="geometricPrecision" font-family="sans-serif" shape-rendering="geometricPrecision" stroke-miterlimit="1.45">
      <text x="874.4554" xml:space="preserve" y="321.7041" clip-path="url(#clipPath2)" stroke="none">Laravel Application B</text>
      <rect x="741" y="304.6235" clip-path="url(#clipPath2)" fill="none" width="276.3733" stroke-dasharray="6,2" rx="4" ry="4" height="138.3765"/>
    </g>
    <g fill="white" text-rendering="geometricPrecision" shape-rendering="geometricPrecision" transform="matrix(1,0,0,1,-303,-289)" stroke="white">
      <path d="M756 342 L836 342 L836 418 Q816 398 796 418 Q776 438 756 418 Z" stroke="none" clip-path="url(#clipPath2)"/>
    </g>
    <g text-rendering="geometricPrecision" stroke-miterlimit="1.45" shape-rendering="geometricPrecision" transform="matrix(1,0,0,1,-303,-289)" stroke-linecap="butt">
      <path fill="none" d="M756 342 L836 342 L836 418 Q816 398 796 418 Q776 438 756 418 Z" clip-path="url(#clipPath2)"/>
      <text x="774.3115" xml:space="preserve" y="364.4207" clip-path="url(#clipPath2)" font-family="sans-serif" stroke="none">Inbound</text>
      <text x="771.6543" xml:space="preserve" y="379.1219" clip-path="url(#clipPath2)" font-family="sans-serif" stroke="none">Message</text>
      <text x="779.6582" xml:space="preserve" y="393.823" clip-path="url(#clipPath2)" font-family="sans-serif" stroke="none">Model</text>
    </g>
    <g fill="white" text-rendering="geometricPrecision" shape-rendering="geometricPrecision" transform="matrix(1,0,0,1,-303,-289)" stroke="white">
      <rect x="880.9506" width="121.4227" height="54.9037" y="357.5482" clip-path="url(#clipPath2)" stroke="none"/>
    </g>
    <g text-rendering="geometricPrecision" stroke-miterlimit="1.45" stroke-dasharray="6,2" shape-rendering="geometricPrecision" transform="matrix(1,0,0,1,-303,-289)" stroke-linecap="butt">
      <rect fill="none" x="880.9506" width="121.4227" height="54.9037" y="357.5482" clip-path="url(#clipPath2)"/>
      <text x="892.118" y="375.0127" clip-path="url(#clipPath2)" font-family="sans-serif" stroke-dasharray="none" stroke="none" xml:space="preserve">{</text>
      <text x="892.118" y="389.7139" clip-path="url(#clipPath2)" font-family="sans-serif" stroke-dasharray="none" stroke="none" xml:space="preserve">  "message":"data"</text>
      <text x="892.118" y="404.415" clip-path="url(#clipPath2)" font-family="sans-serif" stroke-dasharray="none" stroke="none" xml:space="preserve">}</text>
    </g>
    <g font-size="14px" stroke-linecap="butt" transform="matrix(1,0,0,1,-303,-289)" text-rendering="geometricPrecision" font-family="sans-serif" shape-rendering="geometricPrecision" font-weight="bold" stroke-miterlimit="1.45">
      <text x="553.9646" xml:space="preserve" y="495.3914" clip-path="url(#clipPath2)" stroke="none">Simple One-way Message Delivery</text>
    </g>
    <g text-rendering="geometricPrecision" stroke-miterlimit="1.45" shape-rendering="geometricPrecision" transform="matrix(1,0,0,1,-303,-289)" stroke-linecap="butt">
      <path fill="none" d="M741.0106 378.75 L743.8606 383.5 L581.4662 383.5 L581.4662 386.5 L743.8606 386.5 L741.0106 391.25 L756.0106 385 L741.0106 378.75 Z" clip-path="url(#clipPath2)"/>
      <text x="629.3796" xml:space="preserve" y="412.3633" clip-path="url(#clipPath2)" font-family="sans-serif" stroke="none">Laravel Queue</text>
      <text x="610.3806" xml:space="preserve" y="427.0645" clip-path="url(#clipPath2)" font-family="sans-serif" stroke="none">(any shareable driver)</text>
    </g>
    <g text-rendering="geometricPrecision" stroke-miterlimit="1.45" shape-rendering="geometricPrecision" transform="matrix(1,0,0,1,-303,-289)" stroke-linecap="butt">
      <path fill="none" d="M836.0073 385 L872.9506 385" clip-path="url(#clipPath2)"/>
      <path d="M880.9506 385 L868.9506 380 L871.9506 385 L868.9506 390 Z" clip-path="url(#clipPath2)" stroke="none"/>
    </g>
  </g>
</svg>
